#!OML:ASF H:\Dans Jumps\Project 1\Capture day 1\Session 1\subject.ASF
:FULLY-SPECIFIED
:DEGREES
192
root 0.358192 16.1654 -15.2859 21.2479 1.58801 -0.481676
lowerback 15.1198 -0.528399 -0.985456
upperback 3.64483 -0.712583 2.32894
thorax -4.56451 -0.334788 3.14773
lowerneck -18.1994 0.084824 -2.22262
upperneck 11.0521 0.615347 0.361319
head 6.31567 0.230762 0.539368
rclavicle -1.39149e-015 0
rhumerus -27.3018 -19.7903 -74.802
rradius 22.2203
rwrist 34.4431
rhand -16.6308 -25.966
rfingers 7.12502
rthumb 9.59161 -55.7277
lclavicle -1.39149e-015 0
lhumerus -26.1009 16.5167 77.4624
lradius 12.3353
lwrist -8.96415
lhand -23.131 -3.68557
lfingers 7.12502
lthumb 3.31656 26.2684
rfemur -52.9712 -2.01448 19.6433
rtibia 57.8645
rfoot -29.8508 -13.7199
rtoes 2.23654
lfemur -53.0505 4.23313 -20.4592
ltibia 56.118
lfoot -26.1385 18.5547
ltoes -10.1257
193
root 0.347917 16.1179 -15.2876 21.7861 1.6951 -0.43673
lowerback 15.477 -0.518378 -1.06929
upperback 3.5042 -0.708095 2.35194
thorax -4.90561 -0.325564 3.22908
lowerneck -18.4285 0.0781365 -2.20888
upperneck 10.7369 0.608979 0.349476
head 6.25168 0.229759 0.532212
rclavicle 3.97569e-016 -1.39149e-015
rhumerus -27.4185 -19.7231 -74.7602
rradius 22.2636
rwrist 34.1793
rhand -16.6911 -25.9869
rfingers 7.12502
rthumb 9.53342 -55.7512
lclavicle 3.97569e-016 -1.39149e-015
lhumerus -26.2603 16.7727 77.286
lradius 12.3459
lwrist -9.01087
lhand -23.0663 -3.66888
lfingers 7.12502
lthumb 3.37904 26.2841
rfemur -53.9179 -1.93422 19.6254
rtibia 58.4518
rfoot -29.9751 -14.055
rtoes 2.33424
lfemur -53.9826 3.96745 -20.4191
ltibia 56.6433
lfoot -26.1805 18.7602
ltoes -10.1061
194
root 0.337167 16.0685 -15.2872 22.3527 1.79079 -0.403736
lowerback 15.8149 -0.497512 -1.1438
upperback 3.3447 -0.688495 2.37373
thorax -5.25793 -0.308252 3.3011
lowerneck -18.6973 0.0644559 -2.19667
upperneck 10.4773 0.59309 0.349088
head 6.21201 0.224593 0.528274
rclavicle 1.0138e-014 -1.59028e-014
rhumerus -27.5535 -19.7096 -74.6972
rradius 22.3088
rwrist 33.9166
rhand -16.7368 -26.0138
rfingers 7.12502
rthumb 9.48928 -55.7801
lclavicle 1.0138e-014 -1.59028e-014
lhumerus -26.4102 17.1119 77.0714
lradius 12.3148
lwrist -9.16578
lhand -23.0341 -3.69125
lfingers 7.12502
lthumb 3.41013 26.2612
rfemur -54.8974 -1.8343 19.6158
rtibia 59.0524
rfoot -30.0982 -14.3972
rtoes 2.43936
lfemur -54.9521 3.71971 -20.3656
ltibia 57.1935
lfoot -26.223 18.9628
ltoes -10.0458
195
root 0.325945 16.017 -15.2847 22.9393 1.87146 -0.385985
lowerback 16.147 -0.466672 -1.21502
upperback 3.16452 -0.655639 2.39627
thorax -5.63074 -0.283568 3.36972
lowerneck -18.9943 0.0412257 -2.20397
upperneck 10.2633 0.565342 0.381927
head 6.19137 0.215355 0.537112
rclavicle 2.5842e-015 -8.15017e-015
rhumerus -27.6948 -19.708 -74.6288
rradius 22.3442
rwrist 33.6303
rhand -16.7763 -26.0586
rfingers 7.12502
rthumb 9.45114 -55.8267
lclavicle 2.5842e-015 -8.15017e-015
lhumerus -26.5579 17.5595 76.8074
lradius 12.2498
lwrist -9.46296
lhand -22.9938 -3.68167
lfingers 7.12502
lthumb 3.44911 26.2702
rfemur -55.9813 -1.70903 19.6161
rtibia 59.896
rfoot -30.3603 -14.7863
rtoes 2.54622
lfemur -56.0388 3.49577 -20.2955
ltibia 58.0137
lfoot -26.4073 19.2253
ltoes -9.96149
196
root 0.314309 15.9633 -15.2803 23.538 1.94004 -0.387208
lowerback 16.4843 -0.426225 -1.27712
upperback 2.96264 -0.60897 2.41912
thorax -6.03156 -0.251232 3.43112
lowerneck -19.3056 0.00844827 -2.22745
upperneck 10.0793 0.524941 0.446301
head 6.18249 0.201838 0.557459
rclavicle 3.18055e-015 -2.5842e-015
rhumerus -27.8387 -19.7183 -74.5598
rradius 22.3654
rwrist 33.3334
rhand -16.7932 -26.1387
rfingers 7.12502
rthumb 9.4349 -55.9075
lclavicle 3.18055e-015 -2.5842e-015
lhumerus -26.7 18.1319 76.4827
lradius 12.1403
lwrist -9.93601
lhand -22.9182 -3.61097
lfingers 7.12502
lthumb 3.5221 26.3397
rfemur -57.0797 -1.56191 19.6323
rtibia 60.7534
rfoot -30.6088 -15.1974
rtoes 2.6493
lfemur -57.1466 3.2959 -20.2033
ltibia 58.8582
lfoot -26.5794 19.4844
ltoes -9.85648
197
root 0.302168 15.9071 -15.2739 24.1406 1.99724 -0.404401
lowerback 16.8331 -0.375375 -1.33548
upperback 2.74323 -0.548264 2.44302
thorax -6.45962 -0.211123 3.48891
lowerneck -19.642 -0.0332275 -2.26458
upperneck 9.92219 0.473634 0.534791
head 6.1862 0.184441 0.586699
rclavicle 2.22639e-014 -3.18055e-014
rhumerus -27.9757 -19.7554 -74.4854
rradius 22.3605
rwrist 33.0793
rhand -16.8117 -26.233
rfingers 7.12502
rthumb 9.41704 -56.0026
lclavicle 2.22639e-014 -3.18055e-014
lhumerus -26.8292 18.873 76.0857
lradius 11.9764
lwrist -10.6302
lhand -22.8318 -3.52551
lfingers 7.12502
lthumb 3.60549 26.4237
rfemur -58.1861 -1.39649 19.6625
rtibia 61.628
rfoot -30.8414 -15.6317
rtoes 2.75348
lfemur -58.2667 3.12067 -20.0916
ltibia 59.7268
lfoot -26.7403 19.7367
ltoes -9.7645
198
root 0.289416 15.8485 -15.2658 24.7403 2.04327 -0.431761
lowerback 17.1997 -0.314654 -1.39837
upperback 2.5062 -0.475628 2.4687
thorax -6.9186 -0.164005 3.54897
lowerneck -19.9706 -0.08274 -2.31485
upperneck 9.76111 0.413255 0.638319
head 6.18722 0.163557 0.621842
rclavicle 1.27222e-014 -2.38542e-015
rhumerus -28.0998 -19.8092 -74.4099
rradius 22.3257
rwrist 32.8994
rhand -16.8399 -26.3437
rfingers 7.12502
rthumb 9.38984 -56.1145
lclavicle 1.27222e-014 -2.38542e-015
lhumerus -26.9531 19.8019 75.6096
lradius 11.7628
lwrist -11.5614
lhand -22.7381 -3.43359
lfingers 7.12502
lthumb 3.69603 26.5141
rfemur -59.2935 -1.21816 19.7017
rtibia 62.5218
rfoot -31.07 -16.075
rtoes 2.9048
lfemur -59.3912 2.96782 -19.9655
ltibia 60.6179
lfoot -26.8887 19.9845
ltoes -9.68413
199
root 0.276016 15.7873 -15.256 25.3363 2.08098 -0.459893
lowerback 17.5746 -0.244643 -1.47161
upperback 2.25647 -0.393244 2.49342
thorax -7.39836 -0.110964 3.61162
lowerneck -20.2929 -0.134781 -2.35493
upperneck 9.58911 0.348457 0.73206
head 6.18368 0.140256 0.65161
rclavicle -5.56597e-015 2.88238e-014
rhumerus -28.2045 -19.8802 -74.3353
rradius 22.259
rwrist 32.8252
rhand -16.882 -26.4468
rfingers 7.12502
rthumb 9.3492 -56.2195
lclavicle -5.56597e-015 2.88238e-014
lhumerus -27.0712 20.9157 75.0574
lradius 11.5092
lwrist -12.7158
lhand -22.6706 -3.38129
lfingers 7.12502
lthumb 3.76115 26.5653
rfemur -60.4025 -1.03559 19.7422
rtibia 63.4361
rfoot -31.2928 -16.5276
rtoes 3.12887
lfemur -60.5173 2.82878 -19.8334
ltibia 61.5291
lfoot -27.0195 20.2299
ltoes -9.62053
